<svg width="201" height="45.75" viewBox="0 0 268 61" fill="none" xmlns="http://www.w3.org/2000/svg">
<path d="M25.3714 6.99098C27.2283 12.8591 30.4134 16.5646 29.3714 22.991C27.3219 21.7771 24.8683 19.7504 22.3699 19.7379C16.8541 19.7104 12.5505 27.4569 11.3714 31.991C14.28 33.6792 16.3214 35.3279 18.3714 37.991C15.1389 35.8609 12.094 34.0858 8.37142 32.991C5.44642 37.3304 -1.97338 46.0779 1.56512 51.6731C4.11572 55.7061 13.0509 54.0258 15.2896 50.3529C16.6189 48.1719 15.0399 45.1517 14.3714 42.991C16.0102 44.9717 17.2218 46.7022 18.3714 48.991C22.2302 47.5067 29.4613 44.1127 28.7094 38.9763C28.2296 35.6993 25.136 32.673 23.3714 29.991C27.1604 32.7243 29.4924 35.7195 31.3714 39.991C37.0762 36.1318 36.4736 32.6308 33.3714 26.991C39.2171 25.6522 42.8475 28.8794 48.3714 28.991C44.2089 25.0979 39.9601 24.041 34.3714 23.991C36.9162 21.4274 39.2956 18.9433 41.3714 15.991L40.3714 14.991C37.0418 17.3356 34.2548 20.1149 31.3714 22.991C31.3707 16.5532 31.5187 10.619 25.3714 6.99098Z" fill="#BFF164"/>
<path d="M64.9634 47V26.84H57.7634V23.528H64.9634V17.528C64.9634 16.248 65.3154 15.24 66.0194 14.504C66.7554 13.768 67.7954 13.4 69.1394 13.4H75.0434V16.664H70.1954C69.2354 16.664 68.7554 17.144 68.7554 18.104V23.528H76.1474V26.84H68.7554V47H64.9634ZM90.5658 47.432C88.8698 47.432 87.3018 47.064 85.8618 46.328C84.4538 45.592 83.3338 44.504 82.5018 43.064C81.7018 41.592 81.3018 39.816 81.3018 37.736V23.528H85.0938V37.448C85.0938 39.784 85.6698 41.48 86.8218 42.536C88.0058 43.592 89.5898 44.12 91.5738 44.12C93.8138 44.12 95.6538 43.384 97.0938 41.912C98.5338 40.44 99.2538 38.248 99.2538 35.336V23.528H103.046V47H99.3498V43.016H98.6778C98.1658 44.136 97.2858 45.16 96.0378 46.088C94.7898 46.984 92.9658 47.432 90.5658 47.432ZM119.956 47.432C118.26 47.432 116.692 47.064 115.252 46.328C113.844 45.592 112.724 44.504 111.892 43.064C111.092 41.592 110.692 39.816 110.692 37.736V23.528H114.484V37.448C114.484 39.784 115.06 41.48 116.212 42.536C117.396 43.592 118.98 44.12 120.964 44.12C123.204 44.12 125.044 43.384 126.484 41.912C127.924 40.44 128.644 38.248 128.644 35.336V23.528H132.436V47H128.74V43.016H128.068C127.556 44.136 126.676 45.16 125.428 46.088C124.18 46.984 122.356 47.432 119.956 47.432ZM150.307 47.672C148.291 47.672 146.435 47.192 144.739 46.232C143.043 45.272 141.699 43.88 140.707 42.056C139.715 40.232 139.219 38.072 139.219 35.576V34.952C139.219 32.456 139.715 30.312 140.707 28.52C141.699 26.696 143.027 25.304 144.691 24.344C146.387 23.352 148.259 22.856 150.307 22.856C151.939 22.856 153.315 23.08 154.435 23.528C155.587 23.944 156.515 24.488 157.219 25.16C157.923 25.8 158.467 26.488 158.851 27.224H159.523V13.4H163.315V47H159.619V43.112H158.947C158.307 44.296 157.315 45.352 155.971 46.28C154.627 47.208 152.739 47.672 150.307 47.672ZM151.315 44.312C153.747 44.312 155.715 43.544 157.219 42.008C158.755 40.44 159.523 38.264 159.523 35.48V35.048C159.523 32.264 158.755 30.104 157.219 28.568C155.715 27 153.747 26.216 151.315 26.216C148.915 26.216 146.931 27 145.363 28.568C143.827 30.104 143.059 32.264 143.059 35.048V35.48C143.059 38.264 143.827 40.44 145.363 42.008C146.931 43.544 148.915 44.312 151.315 44.312ZM171.262 56.6V23.528H174.958V27.416H175.63C176.238 26.232 177.214 25.176 178.558 24.248C179.934 23.32 181.838 22.856 184.27 22.856C186.286 22.856 188.126 23.352 189.79 24.344C191.486 25.304 192.83 26.68 193.822 28.472C194.846 30.264 195.358 32.424 195.358 34.952V35.576C195.358 38.072 194.862 40.232 193.87 42.056C192.878 43.88 191.534 45.272 189.838 46.232C188.174 47.192 186.318 47.672 184.27 47.672C182.638 47.672 181.246 47.448 180.094 47C178.974 46.584 178.062 46.04 177.358 45.368C176.654 44.696 176.11 44.008 175.726 43.304H175.054V56.6H171.262ZM183.262 44.312C185.694 44.312 187.662 43.544 189.166 42.008C190.702 40.44 191.47 38.264 191.47 35.48V35.048C191.47 32.264 190.702 30.104 189.166 28.568C187.662 27 185.694 26.216 183.262 26.216C180.862 26.216 178.878 27 177.31 28.568C175.774 30.104 175.006 32.264 175.006 35.048V35.48C175.006 38.264 175.774 40.44 177.31 42.008C178.878 43.544 180.862 44.312 183.262 44.312ZM202.152 47V13.4H205.944V47H202.152ZM221.118 47.672C219.486 47.672 217.998 47.384 216.654 46.808C215.31 46.232 214.254 45.4 213.486 44.312C212.718 43.224 212.334 41.896 212.334 40.328C212.334 38.728 212.718 37.416 213.486 36.392C214.254 35.336 215.31 34.552 216.654 34.04C217.998 33.496 219.502 33.224 221.166 33.224H229.086V31.496C229.086 29.832 228.59 28.52 227.598 27.56C226.638 26.6 225.198 26.12 223.278 26.12C221.39 26.12 219.918 26.584 218.862 27.512C217.806 28.408 217.086 29.624 216.702 31.16L213.15 30.008C213.534 28.696 214.142 27.512 214.974 26.456C215.806 25.368 216.91 24.504 218.286 23.864C219.694 23.192 221.374 22.856 223.326 22.856C226.334 22.856 228.67 23.64 230.334 25.208C231.998 26.744 232.83 28.92 232.83 31.736V42.344C232.83 43.304 233.278 43.784 234.174 43.784H236.334V47H233.022C231.966 47 231.118 46.712 230.478 46.136C229.838 45.528 229.518 44.728 229.518 43.736V43.496H228.942C228.59 44.104 228.11 44.744 227.502 45.416C226.926 46.056 226.126 46.584 225.102 47C224.078 47.448 222.75 47.672 221.118 47.672ZM221.55 44.408C223.79 44.408 225.598 43.752 226.974 42.44C228.382 41.096 229.086 39.224 229.086 36.824V36.296H221.31C219.806 36.296 218.558 36.632 217.566 37.304C216.606 37.944 216.126 38.92 216.126 40.232C216.126 41.544 216.622 42.568 217.614 43.304C218.638 44.04 219.95 44.408 221.55 44.408ZM241.527 47V23.528H245.223V27.512H245.895C246.407 26.392 247.271 25.384 248.487 24.488C249.735 23.56 251.559 23.096 253.959 23.096C255.719 23.096 257.287 23.464 258.663 24.2C260.071 24.936 261.191 26.024 262.023 27.464C262.855 28.904 263.271 30.68 263.271 32.792V47H259.479V33.08C259.479 30.744 258.887 29.048 257.703 27.992C256.551 26.936 254.983 26.408 252.999 26.408C250.727 26.408 248.871 27.144 247.431 28.616C246.023 30.088 245.319 32.28 245.319 35.192V47H241.527Z" fill="white"/>
</svg>
